# xmcd
# 
# Track frame offsets:
#     150
#     11841
#     25924
#     38814
#     54233
#     66181
#     80633
#     97596
#     110488
#     121297
#     136814
#     145999
#     162496
#     174440
#     185030
#     199260
#     212293
#     224096
#     250898
#     268884
# 
# Disc length: 3740
# 
# Revision: 2
# Processed by: cddbd v1.5.2PL0 Copyright (c) Steve Scherf et al.
# Submitted via: fre:ac v1.0.17
# 
DISCID=260e9a14
DTITLE=Charles Aznavour - 40 Chansons D'Or [CD 2/2)
DYEAR=1996
DGENRE=Frans
TTITLE0=Sur Ma Vie
TTITLE1=J'en Déduis Que Je T'aime
TTITLE2=Parce Que
TTITLE3=Je M'voyais Déjà
TTITLE4=Que C'est Triste Venise
TTITLE5=Il Faut Savoir
TTITLE6=L'amour C'est Comme Un Jour
TTITLE7=Et Pourtant
TTITLE8=Hier Encore
TTITLE9=Paris Au Mois D'août
TTITLE10=Après L'amour
TTITLE11=Qui ?
TTITLE12=Le Temps
TTITLE13=For Me Formidable
TTITLE14=Avec
TTITLE15=Plus Bleu Que Tes Yeux
TTITLE16=L'amour Et La Guerre
TTITLE17=Les Plaisirs Démodés
TTITLE18=Mourir D'aimer
TTITLE19=Jezebel
EXTD=
EXTT0=
EXTT1=
EXTT2=
EXTT3=
EXTT4=
EXTT5=
EXTT6=
EXTT7=
EXTT8=
EXTT9=
EXTT10=
EXTT11=
EXTT12=
EXTT13=
EXTT14=
EXTT15=
EXTT16=
EXTT17=
EXTT18=
EXTT19=
PLAYORDER=
